<svg xmlns="http://www.w3.org/2000/svg" viewBox="0 0 465.98 618.07"><defs><style>.cls-1{isolation:isolate;}.cls-2{fill:#454754;}.cls-3{fill:#fffaf0;}.cls-4{fill:#ccc;}.cls-5{fill:#6e6f77;}.cls-6{fill:#6c6;}.cls-7{fill:#9c9;}.cls-8{fill:#f66;}.cls-11,.cls-9{fill:#666;}.cls-10{fill:#e32d66;}.cls-11{opacity:0.6;mix-blend-mode:hard-light;}</style></defs><title>gameboy-v2</title><g class="cls-1"><g id="Layer_2" data-name="Layer 2"><g id="second-take"><g id="body"><path class="cls-2" d="M21.85,0H444.12A21.85,21.85,0,0,1,466,21.85V490.8A127.27,127.27,0,0,1,338.71,618.07H21.85A21.85,21.85,0,0,1,0,596.21V21.85A21.85,21.85,0,0,1,21.85,0Z"/><path class="cls-3" d="M31.82,606.44A18.87,18.87,0,0,1,13,587.58V30.48A18.87,18.87,0,0,1,31.82,11.63H434.16A18.88,18.88,0,0,1,453,30.48V482.17A124.41,124.41,0,0,1,328.74,606.44Z"/><path class="cls-4" d="M434.16,14.63A15.87,15.87,0,0,1,450,30.48V482.17A121.27,121.27,0,0,1,328.74,603.44H31.82A15.87,15.87,0,0,1,16,587.58V30.48A15.87,15.87,0,0,1,31.82,14.63H434.16m0-6H31.82A21.85,21.85,0,0,0,10,30.48v557.1a21.86,21.86,0,0,0,21.85,21.86H328.74A127.27,127.27,0,0,0,456,482.17V30.48A21.85,21.85,0,0,0,434.16,8.63Z"/></g><g id="screen"><path class="cls-5" d="M370.65,293.89H60A20.91,20.91,0,0,1,39.11,273V68.25A20.91,20.91,0,0,1,60,47.34H406a20.91,20.91,0,0,1,20.91,20.91V237.67A56.22,56.22,0,0,1,370.65,293.89Z"/><rect class="cls-6" x="113" y="69.7" width="239.08" height="200.94" rx="4"/><path class="cls-7" d="M348.08,71.7a2,2,0,0,1,2,2V266.64a2,2,0,0,1-2,2H117a2,2,0,0,1-2-2V73.7a2,2,0,0,1,2-2H348.08m0-4H117a6,6,0,0,0-6,6V266.64a6,6,0,0,0,6,6H348.08a6,6,0,0,0,6-6V73.7a6,6,0,0,0-6-6Z"/></g><g id="power-light"><circle class="cls-8" cx="75.79" cy="140.62" r="7.55"/></g><path id="d-pad" class="cls-9" d="M176.6,388.56v25.62a3.42,3.42,0,0,1-3.42,3.41H140.69a3.41,3.41,0,0,0-3.41,3.41v32.49a3.42,3.42,0,0,1-3.41,3.42H108.25a3.42,3.42,0,0,1-3.41-3.42V421a3.41,3.41,0,0,0-3.41-3.41H68.94a3.41,3.41,0,0,1-3.41-3.41V388.56a3.41,3.41,0,0,1,3.41-3.41h32.49a3.41,3.41,0,0,0,3.41-3.41V349.25a3.41,3.41,0,0,1,3.41-3.41h25.62a3.41,3.41,0,0,1,3.41,3.41v32.49a3.41,3.41,0,0,0,3.41,3.41h32.49A3.42,3.42,0,0,1,176.6,388.56Z"/><g id="buttons"><path class="cls-10" d="M389.9,403.92a25,25,0,1,1,25-25A25,25,0,0,1,389.9,403.92Z"/><path class="cls-4" d="M389.9,356a23,23,0,1,1-23,23,23,23,0,0,1,23-23m0-4a27,27,0,1,0,27,27,27,27,0,0,0-27-27Z"/><path class="cls-10" d="M318.71,450.3a25,25,0,1,1,25-25A25,25,0,0,1,318.71,450.3Z"/><path class="cls-4" d="M318.71,402.37a23,23,0,1,1-23,23,23,23,0,0,1,23-23m0-4a27,27,0,1,0,27,27,27,27,0,0,0-27-27Z"/><rect class="cls-9" x="235.52" y="522.05" width="51.59" height="8.6" rx="3.05" transform="translate(-200.6 163.09) rotate(-25.42)"/><rect class="cls-9" x="178.89" y="522.05" width="51.59" height="8.6" rx="3.05" transform="translate(-206.08 138.79) rotate(-25.42)"/></g><g id="speaker"><rect class="cls-9" x="374.51" y="521.88" width="8.9" height="36.94" transform="translate(-271.09 426.23) rotate(-45)"/><rect class="cls-9" x="393.72" y="502.66" width="8.9" height="36.94" transform="translate(-251.88 434.18) rotate(-45)"/><rect class="cls-9" x="412.42" y="483.97" width="8.9" height="36.94" transform="translate(-233.18 441.93) rotate(-45)"/><rect class="cls-9" x="355.29" y="541.09" width="8.9" height="36.94" transform="translate(-290.3 418.27) rotate(-45)"/></g><path id="shadow" class="cls-11" d="M457,470.22c5.26,94.12-67.11,153.25-165.27,140.66"/></g></g></g></svg>